<?xml version="1.0" encoding="UTF-8"?>
<svg id="Layer_1" xmlns="http://www.w3.org/2000/svg" version="1.1" viewBox="0 0 403 419.39">
  <!-- Generator: Adobe Illustrator 30.2.1, SVG Export Plug-In . SVG Version: 2.1.1 Build 1)  -->
  <defs>
    <style>
      .st0 {
        fill: #f4a300;
      }
    </style>
  </defs>
  <rect width="403" height="419.39"/>
  <path class="st0" d="M29,374c64-19,124-25,184-21,64,4,115,13,152,25-67,2-131,10-207,15-50,4-93,0-129-19Z"/>
  <rect class="st0" x="66" y="291" width="56" height="62" rx="10" ry="10"/>
  <rect class="st0" x="135" y="261" width="56" height="92" rx="10" ry="10"/>
  <rect class="st0" x="204" y="223" width="56" height="130" rx="10" ry="10"/>
  <rect class="st0" x="273" y="186" width="56" height="167" rx="10" ry="10"/>
  <path class="st0" d="M100,177c-13-25-12-41,1-63,11-18,16-36,8-59,30,22,37,61,20,93-7,13-15,22-29,29Z"/>
  <path class="st0" d="M182,152c-12-27-11-47,4-71,12-19,19-38,12-61,30,24,37,66,19,99-7,13-16,25-35,33Z"/>
  <path class="st0" d="M265,177c-13-25-12-41,1-63,11-18,16-36,8-59,30,22,37,61,20,93-7,13-15,22-29,29Z"/>
</svg>