<?xml version="1.0" encoding="UTF-8"?>
<svg id="Layer_1" xmlns="http://www.w3.org/2000/svg" version="1.1" viewBox="0 0 1700.79 558.45">
  <!-- Generator: Adobe Illustrator 30.2.1, SVG Export Plug-In . SVG Version: 2.1.1 Build 1)  -->
  <defs>
    <style>
      .st0 {
        fill: none;
        opacity: .25;
        stroke: #fff;
        stroke-width: 5px;
      }

      .st0, .st1, .st2, .st3, .st4 {
        isolation: isolate;
      }

      .st1, .st3 {
        font-size: 234.28px;
      }

      .st1, .st3, .st4 {
        font-family: Arial-BoldMT, Arial;
        font-weight: 700;
      }

      .st1, .st4 {
        fill: #fff;
      }

      .st5, .st3 {
        fill: #f2a31e;
      }

      .st4 {
        font-size: 63.22px;
        letter-spacing: .1em;
        opacity: .7;
      }
    </style>
  </defs>
  <g>
    <path class="st5" d="M8.41,400.07c66.64-19.78,129.12-26.03,191.59-21.87,66.64,4.17,119.74,13.54,158.27,26.03-69.76,2.08-136.4,10.41-215.54,15.62-52.06,4.17-96.84,0-134.32-19.78Z"/>
    <rect class="st5" x="46.93" y="313.64" width="58.31" height="64.56" rx="5.6" ry="5.6"/>
    <rect class="st5" x="118.78" y="282.41" width="58.31" height="95.8" rx="5.6" ry="5.6"/>
    <rect class="st5" x="190.63" y="242.84" width="58.31" height="135.36" rx="5.6" ry="5.6"/>
    <rect class="st5" x="262.48" y="204.31" width="58.31" height="173.89" rx="5.6" ry="5.6"/>
    <path class="st5" d="M82.34,194.94c-13.54-26.03-12.5-42.69,1.04-65.6,11.45-18.74,16.66-37.49,8.33-61.43,31.24,22.91,38.53,63.52,20.83,96.84-7.29,13.54-15.62,22.91-30.2,30.2Z"/>
    <path class="st5" d="M167.72,168.91c-12.5-28.11-11.45-48.94,4.17-73.93,12.5-19.78,19.78-39.57,12.5-63.52,31.24,24.99,38.53,68.72,19.78,103.08-7.29,13.54-16.66,26.03-36.44,34.36Z"/>
    <path class="st5" d="M254.15,194.94c-13.54-26.03-12.5-42.69,1.04-65.6,11.45-18.74,16.66-37.49,8.33-61.43,31.24,22.91,38.53,63.52,20.83,96.84-7.29,13.54-15.62,22.91-30.2,30.2Z"/>
  </g>
  <g class="st2">
    <text class="st1" transform="translate(418.81 368.31)"><tspan x="0" y="0">Sauna</tspan></text>
    <text class="st3" transform="translate(1121.89 368.31)"><tspan x="0" y="0">Stats</tspan></text>
  </g>
  <text class="st4" transform="translate(429.97 492.89)"><tspan x="0" y="0">TRACK YOUR HEAT</tspan></text>
  <line class="st0" x1="429.97" y1="518.92" x2="827.88" y2="518.92"/>
</svg>